            <svg xmlns="http://www.w3.org/2000/svg" width="119" height="42" viewBox="0 0 119 42" fill="none">
                                            <path d="M8.3851 40.394C-2.78328 34.0299 -2.74884 7.70101 8.21193 1.51847C19.1727 -4.66408 41.9104 9.26554 41.9104 21.1043C41.9104 32.943 19.5535 46.7581 8.3851 40.394Z" fill="#FC794B"></path>
                                            <path d="M7.87672 16.4021C10.4352 16.4021 12.1123 18.4601 12.1123 20.9297C12.1123 21.0755 12.1037 21.2127 12.0952 21.3499C12.0695 21.5985 11.9155 21.71 11.6845 21.71H5.30765C5.58883 23.1155 6.6324 23.8366 7.93662 23.8366C8.74951 23.8366 9.42549 23.4936 9.79342 23.0134C9.93033 22.8676 10.0587 22.7819 10.264 22.7819L11.3593 22.7733C11.6417 22.7733 11.7957 22.9448 11.6845 23.1849C11.0598 24.5826 9.65652 25.423 7.91095 25.423C5.18136 25.423 3.39301 23.485 3.39301 20.9125C3.39301 18.3743 5.19847 16.4021 7.87672 16.4021ZM5.30064 20.1837H10.2531C10.0106 18.7233 8.96993 18.0914 7.86834 18.0914C6.48831 18.0914 5.55221 18.9007 5.30064 20.1837ZM21.7533 16.625C22.0015 16.625 22.1384 16.7622 22.1384 17.0109V24.8142C22.1384 25.0628 22.0015 25.2 21.7533 25.2H20.6752C20.427 25.2 20.2901 25.0628 20.2901 24.8142V23.9694C19.6426 24.8696 18.636 25.423 17.2869 25.423C14.9595 25.423 13.0342 23.4593 13.0342 20.9125C13.0342 18.3658 14.9595 16.4021 17.2869 16.4021C18.636 16.4021 19.6426 16.9555 20.2901 17.8557V17.0109C20.2901 16.7622 20.427 16.625 20.6752 16.625H21.7533V16.625ZM17.5862 23.6565C19.1264 23.6565 20.2901 22.5075 20.2901 20.9125C20.2901 19.3176 19.1264 18.1685 17.5862 18.1685C16.046 18.1685 14.8823 19.3176 14.8823 20.9125C14.8823 22.5075 16.046 23.6565 17.5862 23.6565ZM25.6956 19.0346C25.6956 20.7582 30.4446 19.5148 30.4446 22.7905C30.4446 24.4797 28.9728 25.423 27.0818 25.423C25.3277 25.423 23.9329 24.5826 23.7447 22.9534C23.719 22.6876 23.873 22.5504 24.1212 22.5504H25.1822C25.4132 22.5504 25.5074 22.679 25.5929 22.8934C25.7384 23.5108 26.3374 23.7594 27.0818 23.7594C27.9803 23.7594 28.5963 23.4422 28.5963 22.7905C28.5963 21.084 23.8474 22.3017 23.8474 19.0346C23.8474 17.3625 25.3191 16.4021 27.0818 16.4021C28.6819 16.4021 30.0595 17.2424 30.2478 18.8717C30.2735 19.1375 30.1194 19.2747 29.8713 19.2747H28.8103C28.5792 19.2747 28.4851 19.1461 28.3995 18.9231C28.2626 18.3143 27.6893 18.0656 27.0818 18.0656C26.3117 18.0656 25.6956 18.3829 25.6956 19.0346ZM36.9025 16.9423C36.971 16.7279 37.125 16.625 37.3389 16.625H38.5112C38.785 16.625 38.9219 16.788 38.8278 17.0624L34.9687 28.3213C34.9003 28.5357 34.7377 28.63 34.5238 28.63H33.3515C33.0777 28.63 32.9408 28.4671 33.0349 28.1927L34.0959 25.0971L30.9385 17.0709C30.8358 16.8051 30.9556 16.625 31.238 16.625H32.4017C32.6156 16.625 32.7611 16.7194 32.8381 16.9252L35.0201 22.5332L36.9025 16.9423Z" fill="white"></path>
                                        </svg>